<svg width="50" height="50" viewBox="0 0 50 50" fill="none" xmlns="http://www.w3.org/2000/svg">
<path d="M40.3438 28.7031L35.5469 26.0156V18.833C35.5474 17.302 35.2372 15.7869 34.6349 14.3794C34.0326 12.9718 33.1508 11.7012 32.043 10.6445L30.6641 9.33496C29.2201 7.95669 27.3009 7.18733 25.3047 7.18652C23.3083 7.18748 21.3888 7.9568 19.9443 9.33496L18.5723 10.6445C17.4641 11.7007 16.582 12.9709 15.9792 14.3781C15.3764 15.7853 15.0655 17.3002 15.0654 18.8311V26.0156L10.2949 28.7012C9.06938 29.2846 8.03427 30.2034 7.30956 31.351C6.58484 32.4987 6.20019 33.8282 6.2002 35.1855V43.4678H44.4473V35.1914C44.4471 33.8325 44.0614 32.5015 43.3351 31.353C42.6087 30.2045 41.5715 29.2857 40.3438 28.7031Z" fill="#DEE1EC"/>
<path d="M29.5059 14.249C27.3984 11.3828 23.1318 11.4102 21.0439 14.249L20.7305 14.6738C18.9061 17.1541 17.9221 20.1525 17.9219 23.2315V24.8272C17.9224 25.4032 18.1001 25.9651 18.4308 26.4368C18.7615 26.9084 19.2292 27.267 19.7705 27.4639L21.0859 27.9414C23.792 28.9248 26.7578 28.9248 29.4639 27.9414L30.7793 27.4639C31.3206 27.267 31.7883 26.9084 32.119 26.4368C32.4497 25.9651 32.6274 25.4032 32.6279 24.8272V23.2315C32.6277 20.1525 31.6437 17.1541 29.8193 14.6738L29.5059 14.249Z" fill="#5E6175"/>
<path d="M13.2031 35.5576H12.6172V43.4678H13.2031V35.5576Z" fill="#5E6175"/>
<path d="M38.29 35.5576H37.7041V43.4678H38.29V35.5576Z" fill="#5E6175"/>
<path d="M26.2354 22.7481H24.4141C24.4148 22.1312 24.562 21.5234 24.8435 20.9745C25.125 20.4257 25.5327 19.9514 26.0332 19.5908C26.2023 19.4698 26.3374 19.3073 26.4255 19.1191C26.5137 18.9308 26.552 18.723 26.5368 18.5156C26.5215 18.3082 26.4532 18.1083 26.3384 17.9349C26.2236 17.7616 26.0661 17.6207 25.8812 17.5257C25.6962 17.4307 25.4899 17.3849 25.2822 17.3926C25.0744 17.4003 24.8721 17.4613 24.6947 17.5697C24.5173 17.6781 24.3707 17.8303 24.2691 18.0117C24.1674 18.1931 24.1141 18.3976 24.1143 18.6055H22.2871C22.2872 18.0854 22.421 17.5741 22.6755 17.1205C22.93 16.667 23.2967 16.2864 23.7406 16.0153C24.1844 15.7442 24.6904 15.5916 25.2101 15.5722C25.7299 15.5529 26.2458 15.6673 26.7086 15.9046C27.1714 16.1419 27.5655 16.4942 27.853 16.9275C28.1406 17.3609 28.312 17.8608 28.3509 18.3794C28.3897 18.8981 28.2947 19.418 28.0749 19.8893C27.8551 20.3607 27.518 20.7677 27.0957 21.0713C26.8297 21.2627 26.613 21.5145 26.4635 21.806C26.3139 22.0975 26.2357 22.4204 26.2354 22.7481Z" fill="#E1830E"/>
<path d="M26.2227 24.1582H24.3916V25.9893H26.2227V24.1582Z" fill="#E1830E"/>
<path style="mix-blend-mode:multiply" d="M15.0654 26.0156C15.0654 26.0156 15.957 30.1465 25.3076 30.835C25.3076 30.835 16.6309 33.6836 12.9648 27.1982L15.0654 26.0156Z" fill="url(#paint0_linear_19_2)"/>
<path style="mix-blend-mode:multiply" d="M35.5469 26.0156C35.5469 26.0156 34.6553 30.1465 25.3047 30.835C25.3047 30.835 33.9834 33.6807 37.6494 27.1943L35.5469 26.0156Z" fill="url(#paint1_linear_19_2)"/>
<path d="M20.8145 30.418C15.4668 28.9961 14.8047 26.1953 14.7793 26.0771L15.3516 25.9531C15.3574 25.9775 15.998 28.5312 20.9648 29.8516C23.8105 30.6064 26.8038 30.6064 29.6494 29.8516C34.6162 28.5312 35.2539 25.9766 35.2637 25.9521L35.8398 26.0742C35.8145 26.1924 35.1563 28.9932 29.8037 30.415C26.8586 31.1979 23.7601 31.199 20.8145 30.418Z" fill="#5E6175"/>
<path d="M34.9712 7.90388L33.6047 9.27045L34.019 9.68477L35.3855 8.3182L34.9712 7.90388Z" fill="#5E6175"/>
<path d="M32.5107 6.53223H31.9248V8.46484H32.5107V6.53223Z" fill="#5E6175"/>
<path d="M36.8086 10.6621H34.876V11.248H36.8086V10.6621Z" fill="#5E6175"/>
<path d="M3.45801 31.0605C3.34277 30.9081 3.26691 30.7296 3.23714 30.5408C3.20736 30.3521 3.2246 30.1589 3.28733 29.9783C3.35005 29.7978 3.45632 29.6356 3.59672 29.5059C3.73713 29.3763 3.90734 29.2833 4.09227 29.2352C4.27721 29.187 4.47116 29.1852 4.65696 29.2299C4.84275 29.2746 5.01465 29.3645 5.15744 29.4915C5.30022 29.6185 5.40948 29.7788 5.47553 29.9581C5.54159 30.1374 5.5624 30.3302 5.53613 30.5195C5.50367 30.7467 5.40481 30.9592 5.25196 31.1303C5.09911 31.3014 4.8991 31.4236 4.67705 31.4814C4.455 31.5392 4.22082 31.5301 4.00393 31.4552C3.78703 31.3803 3.59711 31.243 3.45801 31.0605ZM4.38477 29.7852C4.27421 29.7853 4.16602 29.8172 4.07311 29.8771C3.98019 29.937 3.90648 30.0224 3.86075 30.123C3.81503 30.2237 3.79923 30.3354 3.81524 30.4448C3.83125 30.5542 3.87839 30.6566 3.95104 30.74C4.02369 30.8233 4.11879 30.884 4.22497 30.9147C4.33116 30.9455 4.44396 30.9451 4.54991 30.9135C4.65585 30.8819 4.75048 30.8205 4.8225 30.7366C4.89451 30.6528 4.94088 30.5499 4.95605 30.4404C4.9672 30.3588 4.96076 30.2758 4.93716 30.1969C4.91357 30.118 4.87336 30.0451 4.81925 29.983C4.76513 29.921 4.69837 29.8712 4.62343 29.8371C4.54849 29.8029 4.46711 29.7852 4.38477 29.7852ZM8.34277 26.9209C8.17329 26.9211 8.00779 26.8695 7.86842 26.7731C7.72905 26.6766 7.62246 26.5399 7.5629 26.3813C7.50334 26.2226 7.49366 26.0495 7.53515 25.8852C7.57665 25.7208 7.66733 25.5731 7.79508 25.4617C7.92282 25.3504 8.08154 25.2806 8.24998 25.2619C8.41843 25.2432 8.58857 25.2764 8.73765 25.357C8.88673 25.4376 9.00764 25.5618 9.08419 25.7131C9.16074 25.8643 9.18929 26.0352 9.16602 26.2031C9.13845 26.4019 9.03995 26.5841 8.88866 26.716C8.73737 26.8479 8.54349 26.9207 8.34277 26.9209ZM8.30859 26.335C8.34873 26.3407 8.38966 26.3364 8.42774 26.3225C8.46583 26.3086 8.49989 26.2855 8.5269 26.2553C8.55391 26.2251 8.57303 26.1886 8.58257 26.1492C8.5921 26.1098 8.59175 26.0686 8.58155 26.0294C8.57135 25.9902 8.55161 25.9541 8.52409 25.9243C8.49657 25.8945 8.46212 25.872 8.4238 25.8588C8.38549 25.8455 8.34449 25.8419 8.30446 25.8483C8.26443 25.8548 8.2266 25.871 8.19434 25.8955C8.15572 25.9249 8.12665 25.965 8.1108 26.0109C8.09494 26.0568 8.09299 26.1063 8.1052 26.1533C8.11741 26.2002 8.14323 26.2425 8.17942 26.2749C8.21561 26.3072 8.26055 26.3281 8.30859 26.335Z" fill="#5E6175"/>
<path d="M44.7402 43.4678H44.1543V35.1914C44.1505 33.8886 43.779 32.6134 43.0827 31.5124C42.3863 30.4115 41.3932 29.5294 40.2178 28.9678C40.1807 28.9492 39.8008 28.7353 35.2568 26.1865V18.833C35.2537 17.342 34.9493 15.8671 34.362 14.4967C33.7746 13.1264 32.9164 11.8888 31.8389 10.8584L30.4687 9.54685C29.0787 8.22132 27.2318 7.48184 25.311 7.48184C23.3903 7.48184 21.5433 8.22132 20.1533 9.54685L18.7783 10.8584C17.7008 11.8888 16.8426 13.1264 16.2552 14.4967C15.6679 15.8671 15.3635 17.342 15.3604 18.833V26.1865L10.4229 28.9658C9.24934 29.5282 8.25818 30.4101 7.5631 31.5102C6.86802 32.6104 6.49719 33.8842 6.49316 35.1855V43.4678H5.90723V35.1855C5.91106 33.7758 6.31159 32.3955 7.063 31.2027C7.8144 30.0099 8.88636 29.0526 10.1562 28.4404L14.7686 25.8437V18.833C14.7716 17.2629 15.0918 15.7097 15.7101 14.2665C16.3283 12.8233 17.2318 11.5199 18.3662 10.4345L19.7412 9.12302C21.2402 7.69361 23.232 6.89618 25.3032 6.89618C27.3745 6.89618 29.3663 7.69361 30.8652 9.12302L32.2412 10.4345C33.3757 11.5199 34.2791 12.8233 34.8974 14.2665C35.5156 15.7097 35.8358 17.2629 35.8389 18.833V25.8437L40.4746 28.4433C41.7475 29.0537 42.8226 30.0106 43.5764 31.2042C44.3302 32.3978 44.7322 33.7797 44.7363 35.1914L44.7402 43.4678Z" fill="#5E6175"/>
<path d="M37.6523 21.9922C38.4034 21.9922 39.1238 22.2906 39.6549 22.8217C40.186 23.3528 40.4844 24.0731 40.4844 24.8242C40.4844 24.0731 40.7827 23.3528 41.3139 22.8217C41.845 22.2906 42.5653 21.9922 43.3164 21.9922C42.5653 21.9922 41.845 21.6938 41.3139 21.1627C40.7827 20.6316 40.4844 19.9113 40.4844 19.1602C40.4844 19.9113 40.186 20.6316 39.6549 21.1627C39.1238 21.6938 38.4034 21.9922 37.6523 21.9922ZM12.2148 10.5928C12.5104 10.5928 12.7938 10.7102 13.0027 10.9191C13.2117 11.1281 13.3291 11.4115 13.3291 11.707C13.3291 11.4115 13.4465 11.1281 13.6555 10.9191C13.8644 10.7102 14.1478 10.5928 14.4434 10.5928C14.2969 10.5928 14.152 10.5639 14.0167 10.5079C13.8815 10.4518 13.7586 10.3696 13.6551 10.2661C13.5516 10.1625 13.4696 10.0395 13.4136 9.90425C13.3577 9.76895 13.329 9.62395 13.3291 9.47754C13.3292 9.62395 13.3005 9.76895 13.2446 9.90425C13.1886 10.0395 13.1066 10.1625 13.0031 10.2661C12.8996 10.3696 12.7767 10.4518 12.6415 10.5079C12.5062 10.5639 12.3613 10.5928 12.2148 10.5928Z" fill="#E1830E"/>
<path d="M22.3018 38.5986H21.7158V34.6299C21.7158 32.6514 22.3525 30.5117 22.3799 30.4219L22.9404 30.5908C22.9346 30.6113 22.3018 32.7393 22.3018 34.6299V38.5986ZM28.6533 38.5986H28.0674V34.6289C28.0674 32.7393 27.4346 30.6113 27.4287 30.5898L27.9893 30.4219C28.0166 30.5117 28.6533 32.6514 28.6533 34.6289V38.5986Z" fill="#5E6175"/>
<path d="M22.0088 39.25C22.3685 39.25 22.6602 38.9584 22.6602 38.5986C22.6602 38.2389 22.3685 37.9473 22.0088 37.9473C21.649 37.9473 21.3574 38.2389 21.3574 38.5986C21.3574 38.9584 21.649 39.25 22.0088 39.25Z" fill="#E1830E"/>
<path d="M28.3604 39.25C28.7201 39.25 29.0117 38.9584 29.0117 38.5986C29.0117 38.2389 28.7201 37.9473 28.3604 37.9473C28.0006 37.9473 27.709 38.2389 27.709 38.5986C27.709 38.9584 28.0006 39.25 28.3604 39.25Z" fill="#E1830E"/>
<path d="M46.7773 39.8877H46.1914V39.3018H46.7773V39.8877ZM46.7773 38.3252H46.1914V37.7393H46.7773V38.3252ZM46.7773 36.7627H46.1914V36.1768H46.7773V36.7627ZM46.7773 35.2002H46.1914C46.1914 34.9189 46.1914 34.7979 46.1914 34.6221L46.7773 34.6064C46.7773 34.7959 46.7773 34.9268 46.7773 35.2041V35.2002ZM46.1133 33.6807C46.0879 33.4941 46.0566 33.3057 46.0205 33.1211L46.5947 33.0068C46.6338 33.2021 46.667 33.4043 46.6924 33.6035L46.1133 33.6807ZM45.7861 32.2061C45.7295 32.0273 45.666 31.8467 45.5977 31.6719L46.1436 31.46C46.2168 31.6465 46.2842 31.8389 46.3447 32.0303L45.7861 32.2061ZM45.207 30.8125C45.1201 30.6455 45.0264 30.4795 44.9287 30.3193L45.4277 30.0137C45.5332 30.1855 45.6338 30.3623 45.7266 30.541L45.207 30.8125ZM44.3896 29.5488C44.2778 29.4045 44.1568 29.2675 44.0273 29.1387L44.4316 28.7139C44.5799 28.8617 44.7189 29.0185 44.8477 29.1836L44.3896 29.5488Z" fill="#A9AFC4"/>
<defs>
<linearGradient id="paint0_linear_19_2" x1="12.9648" y1="28.7363" x2="25.3076" y2="28.7363" gradientUnits="userSpaceOnUse">
<stop stop-color="#CACFDD"/>
<stop offset="1" stop-color="#EEF0F1"/>
</linearGradient>
<linearGradient id="paint1_linear_19_2" x1="37.6523" y1="28.7363" x2="25.3076" y2="28.7363" gradientUnits="userSpaceOnUse">
<stop stop-color="#CACFDD"/>
<stop offset="1" stop-color="#EEF0F1"/>
</linearGradient>
</defs>
</svg>
