<svg width="50" height="50" viewBox="0 0 50 50" fill="none" xmlns="http://www.w3.org/2000/svg">
<path d="M25 4.68066C20.0531 4.68087 15.2676 6.44132 11.4999 9.64701C7.73224 12.8527 5.22814 17.2945 4.43571 22.1775C3.64328 27.0605 4.61422 32.0662 7.17481 36.2989C9.73539 40.5316 13.7185 43.715 18.4115 45.2796C19.4532 45.4619 19.8438 44.837 19.8438 44.29C19.8438 43.7952 19.8177 42.1546 19.8177 40.4098C14.5834 41.3733 13.2292 39.1338 12.8125 37.962C12.3502 36.8222 11.6173 35.8122 10.6771 35.0192C9.94793 34.6286 8.90627 33.665 10.651 33.639C11.3173 33.7113 11.9562 33.9432 12.5138 34.3149C13.0714 34.6866 13.5312 35.1872 13.8542 35.7744C14.1391 36.2863 14.5223 36.7369 14.9817 37.1004C15.4411 37.464 15.9677 37.7333 16.5313 37.893C17.095 38.0526 17.6846 38.0995 18.2664 38.0309C18.8482 37.9623 19.4108 37.7795 19.9219 37.4931C20.012 36.434 20.4841 35.4438 21.25 34.7068C16.6146 34.1859 11.7709 32.389 11.7709 24.4203C11.7416 22.3498 12.5056 20.3465 13.9063 18.8214C13.2694 17.0218 13.3439 15.0469 14.1146 13.3005C14.1146 13.3005 15.8593 12.7536 19.8438 15.4359C23.2527 14.4984 26.8515 14.4984 30.2604 15.4359C34.2448 12.7276 35.9896 13.3005 35.9896 13.3005C36.7604 15.0469 36.835 17.0218 36.1979 18.8214C37.6028 20.3439 38.3675 22.3489 38.3334 24.4203C38.3334 32.415 33.4635 34.1859 28.8281 34.7068C29.3253 35.2107 29.7083 35.8157 29.9509 36.4807C30.1935 37.1458 30.2902 37.8552 30.2344 38.5609C30.2344 41.3474 30.2083 43.5869 30.2083 44.2901C30.2083 44.837 30.599 45.488 31.6406 45.2797C36.3253 43.7023 40.297 40.5114 42.8467 36.2766C45.3964 32.0418 46.3581 27.0386 45.5602 22.1603C44.7623 17.282 42.2566 12.846 38.4906 9.64423C34.7245 6.44244 29.9432 4.68324 25 4.68066Z" fill="black"/>
</svg>
