<svg width="50" height="52" viewBox="0 0 50 52" fill="none" xmlns="http://www.w3.org/2000/svg">
<path d="M49.9736 26.062C49.9736 23.9657 49.8035 22.436 49.4354 20.8496H25.498V30.3111H39.5487C39.2655 32.6625 37.7358 36.2035 34.3363 38.5829L34.2887 38.8997L41.8572 44.763L42.3816 44.8153C47.1973 40.3677 49.9736 33.8239 49.9736 26.062Z" fill="#4285F4"/>
<path d="M25.498 50.9908C32.3817 50.9908 38.1606 48.7244 42.3816 44.8153L34.3364 38.5829C32.1835 40.0843 29.2939 41.1325 25.498 41.1325C18.7559 41.1325 13.0337 36.6851 10.9938 30.5378L10.6949 30.5632L2.82496 36.6538L2.72205 36.9399C6.91458 45.2684 15.5264 50.9908 25.498 50.9908Z" fill="#34A853"/>
<path d="M10.9938 30.5378C10.4556 28.9515 10.1441 27.2516 10.1441 25.4954C10.1441 23.7389 10.4556 22.0393 10.9655 20.4529L10.9512 20.1151L2.98273 13.9266L2.72201 14.0506C0.994063 17.5067 0.00256348 21.3878 0.00256348 25.4954C0.00256348 29.6029 0.994063 33.4838 2.72201 36.9399L10.9938 30.5378Z" fill="#FBBC05"/>
<path d="M25.498 9.85816C30.2854 9.85816 33.5148 11.9261 35.3562 13.6543L42.5515 6.62881C38.1325 2.52122 32.3817 0 25.498 0C15.5264 0 6.91458 5.72226 2.72205 14.0507L10.9655 20.453C13.0337 14.3058 18.7559 9.85816 25.498 9.85816Z" fill="#EB4335"/>
</svg>
