<svg width="70" height="70" viewBox="0 0 70 70" fill="none" xmlns="http://www.w3.org/2000/svg">
<path d="M70 35C70 54.33 54.33 70 35 70C15.67 70 0 54.33 0 35C0 15.67 15.67 0 35 0C54.33 0 70 15.67 70 35ZM5.5252 35C5.5252 51.2785 18.7215 64.4748 35 64.4748C51.2785 64.4748 64.4748 51.2785 64.4748 35C64.4748 18.7215 51.2785 5.5252 35 5.5252C18.7215 5.5252 5.5252 18.7215 5.5252 35Z" fill="white"/>
<path d="M19 44.5556C23.6378 42.3705 28.2755 40.1854 32.9138 38" stroke="white" stroke-width="5" stroke-linecap="round"/>
<path d="M50.8953 44.6087C46.2637 42.4059 41.6321 40.2031 37 38" stroke="white" stroke-width="5" stroke-linecap="round"/>
<path d="M23.7613 24.6875V20.9091H46.2755V24.6875H37.1988V50H32.8238V24.6875H23.7613Z" fill="white"/>
</svg>
